<svg xmlns="http://www.w3.org/2000/svg" xmlns:xlink="http://www.w3.org/1999/xlink" fill="none" version="1.1" width="24" height="24" viewBox="0 0 24 24"><g style="mix-blend-mode:passthrough"><g style="opacity:0.15000000596046448;mix-blend-mode:passthrough"><path d="M0,12C8.11624e-16,18.6274,5.37258,24,12,24C18.6274,24,24,18.6274,24,12C24,5.37258,18.6274,4.05812e-16,12,0C5.37258,-4.05812e-16,8.11624e-16,5.37258,0,12Z" fill="#1995FC" fill-opacity="1"/></g><g style="mix-blend-mode:passthrough"><path d="M7.800048828125,16.070998046875C9.268048828125,18.753998046875,13.546048828125,19.655998046875,16.300048828125,16.170998046875C15.220938828125,15.247088046875,14.782778828125,13.776918046875,15.180048828124999,12.412998046875C13.932048828125,13.251998046875,10.517048828125,12.975998046875,9.280048828125,12.322998046875C9.501358828125,13.745808046875,8.936908828125,15.177188046875,7.804048828125,16.065998046875L7.800048828125,16.070998046875Z" fill="#EDE7E6" fill-opacity="1"/></g><g style="mix-blend-mode:passthrough"><path d="M11.919048828125,23.9999990234375C16.171148828125,23.9777990234375,20.089148828125,21.6912390234375,22.200048828125,17.9999990234375L22.200048828125,17.9829990234375C21.600048828125,17.0349990234375,17.439048828125,15.5989990234375,15.811048828125,15.5989990234375C15.236748828125,17.1724790234375,13.745548828125,18.223759023437502,12.070648828125,18.2360190234375C10.395678828125,18.2482690234375,8.889288828125,17.2189090234375,8.292048828125,15.6539990234375C6.032048828125,15.4939990234375,3.312048828125,17.1749990234375,1.800048828125,18.2669990234375C3.945888828125,21.8083690234375,7.778338828125,23.979669023437502,11.919048828125,23.9999990234375L11.919048828125,23.9999990234375Z" fill="#0095FF" fill-opacity="1"/></g><g style="mix-blend-mode:passthrough"><path d="M9.2939453125,12.47400314453125C9.5239453125,13.16700814453125,11.1209453125,16.112008144531252,15.8059453125,15.62300814453125C15.102155312499999,14.75514814453125,14.8513653125,13.60507814453125,15.1299453125,12.52300314453125C15.4589453125,11.80400314453125,9.3909453125,11.83200314453125,9.2939453125,12.47400314453125Z" fill="#E3DCDB" fill-opacity="1"/></g><g style="mix-blend-mode:passthrough"><path d="M16.20809765625,8.782990203125C16.20152765625,9.689238203125,15.99386565625,10.582728203125,15.60009765625,11.398988203125C17.62409765625,10.928988203125,18.10009765625,7.215988203125,16.20809765625,8.782990203125Z" fill="#EFE7E6" fill-opacity="1"/></g><g style="mix-blend-mode:passthrough"><path d="M8.3919253125,8.78299716796875C8.3984153125,9.68957716796875,8.6060753125,10.58340716796875,8.9999253125,11.399997167968749C6.9779253125,10.92799716796875,6.4999253125,7.21599716796875,8.3919253125,8.78299716796875Z" fill="#EFE7E6" fill-opacity="1"/></g><g style="mix-blend-mode:passthrough"><path d="M15.306953359375001,6.10898779296875C13.362623359375,6.7073977929687505,11.246693359375,6.20653779296875,9.776953359375,4.79998779296875C8.658953359375,5.71998779296875,8.937953359375,7.846987792968751,8.576953359375,8.23498779296875C8.515221359375,8.15486779296875,8.458448859375,8.071037792968749,8.406953609375,7.98398779296875C8.093953359375,16.75698779296875,16.272953359375002,16.16298779296875,16.197953359375,8.448987792968751C15.712123359375,7.75461779296875,15.405993359375,6.950637792968751,15.306953359375001,6.10898779296875L15.306953359375001,6.10898779296875Z" fill="#F7EDEB" fill-opacity="1"/></g><g style="mix-blend-mode:passthrough"><path d="M9.7389215625,5.2569940625000005C11.1602915625,6.6628540625,13.242081562500001,7.1683940625,15.149921562500001,6.5709940625C15.2479215625,7.4428540625,15.5636015625,8.276074062500001,16.0679215625,8.9939940625C16.6339215625,9.1999940625,18.275951562499998,3.3049970625,13.467921562499999,2.5029970625C7.8419222625,1.5789970625,6.9679225625,7.0899940625,8.4139225625,8.9789940625C8.7669225625,8.5909940625,8.6449225625,6.1809940625,9.7389215625,5.2569940625000005Z" fill="#000000" fill-opacity="1"/></g></g></svg>