<svg xmlns="http://www.w3.org/2000/svg" xmlns:xlink="http://www.w3.org/1999/xlink" fill="none" version="1.1" width="24" height="24" viewBox="0 0 24 24"><defs><clipPath id="master_svg0_3_033"><rect x="0" y="0" width="24" height="24" rx="0"/></clipPath></defs><g clip-path="url(#master_svg0_3_033)"><g><rect x="5.5" y="2" width="13" height="20" rx="3" fill-opacity="0" stroke-opacity="1" stroke="#BFBFBF" fill="none" stroke-width="1.5"/></g><g><path d="M13,5.75L11,5.75Q10.9261315,5.75,10.853682,5.735589Q10.781233,5.721178,10.712987,5.69291Q10.644742,5.664641,10.583322,5.623602Q10.521903,5.582563,10.46967,5.53033Q10.417437,5.478097,10.376398,5.416678Q10.335359,5.355258,10.30709,5.287013Q10.278822,5.218767,10.264410999999999,5.146318Q10.25,5.0738685,10.25,5Q10.25,4.9261315,10.264410999999999,4.853682Q10.278822,4.781233,10.30709,4.712987Q10.335359,4.644742,10.376398,4.583322Q10.417437,4.521903,10.46967,4.46967Q10.521903,4.417437,10.583322,4.376398Q10.644742,4.335359,10.712987,4.30709Q10.781233,4.278822,10.853682,4.264411Q10.9261315,4.25,11,4.25L13,4.25Q13.07387,4.25,13.14632,4.264411Q13.21877,4.278822,13.28701,4.30709Q13.35526,4.335359,13.41668,4.376398Q13.4781,4.417437,13.53033,4.46967Q13.58256,4.521903,13.6236,4.583322Q13.66464,4.644742,13.69291,4.712987Q13.72118,4.781233,13.73559,4.853682Q13.75,4.9261315,13.75,5Q13.75,5.0738685,13.73559,5.146318Q13.72118,5.218767,13.69291,5.287013Q13.66464,5.355258,13.6236,5.416678Q13.58256,5.478097,13.53033,5.53033Q13.4781,5.582563,13.41668,5.623602Q13.35526,5.664641,13.28701,5.69291Q13.21877,5.721178,13.14632,5.735589Q13.07387,5.75,13,5.75ZM13.75,5Q13.75,5.0738685,13.73559,5.146318Q13.72118,5.218767,13.69291,5.287013Q13.66464,5.355258,13.6236,5.416678Q13.58256,5.478097,13.53033,5.53033Q13.4781,5.582563,13.41668,5.623602Q13.35526,5.664641,13.28701,5.69291Q13.21877,5.721178,13.14632,5.735589Q13.07387,5.75,13,5.75Q12.92613,5.75,12.85368,5.735589Q12.78123,5.721178,12.71299,5.69291Q12.64474,5.664641,12.58332,5.623602Q12.5219,5.582563,12.46967,5.53033Q12.41744,5.478097,12.3764,5.416678Q12.33536,5.355258,12.30709,5.287013Q12.27882,5.218767,12.26441,5.146318Q12.25,5.0738685,12.25,5Q12.25,4.9261315,12.26441,4.853682Q12.27882,4.781233,12.30709,4.712987Q12.33536,4.644742,12.3764,4.583322Q12.41744,4.521903,12.46967,4.46967Q12.5219,4.417437,12.58332,4.376398Q12.64474,4.335359,12.71299,4.30709Q12.78123,4.278822,12.85368,4.264411Q12.92613,4.25,13,4.25Q13.07387,4.25,13.14632,4.264411Q13.21877,4.278822,13.28701,4.30709Q13.35526,4.335359,13.41668,4.376398Q13.4781,4.417437,13.53033,4.46967Q13.58256,4.521903,13.6236,4.583322Q13.66464,4.644742,13.69291,4.712987Q13.72118,4.781233,13.73559,4.853682Q13.75,4.9261315,13.75,5ZM11.75,5Q11.75,5.0738685,11.735589000000001,5.146318Q11.721178,5.218767,11.69291,5.287013Q11.664641,5.355258,11.623602,5.416678Q11.582563,5.478097,11.53033,5.53033Q11.478097,5.582563,11.416678,5.623602Q11.355258,5.664641,11.287013,5.69291Q11.218767,5.721178,11.146318,5.735589Q11.0738685,5.75,11,5.75Q10.9261315,5.75,10.853682,5.735589Q10.781233,5.721178,10.712987,5.69291Q10.644742,5.664641,10.583322,5.623602Q10.521903,5.582563,10.46967,5.53033Q10.417437,5.478097,10.376398,5.416678Q10.335359,5.355258,10.30709,5.287013Q10.278822,5.218767,10.264410999999999,5.146318Q10.25,5.0738685,10.25,5Q10.25,4.9261315,10.264410999999999,4.853682Q10.278822,4.781233,10.30709,4.712987Q10.335359,4.644742,10.376398,4.583322Q10.417437,4.521903,10.46967,4.46967Q10.521903,4.417437,10.583322,4.376398Q10.644742,4.335359,10.712987,4.30709Q10.781233,4.278822,10.853682,4.264411Q10.9261315,4.25,11,4.25Q11.0738685,4.25,11.146318,4.264411Q11.218767,4.278822,11.287013,4.30709Q11.355258,4.335359,11.416678,4.376398Q11.478097,4.417437,11.53033,4.46967Q11.582563,4.521903,11.623602,4.583322Q11.664641,4.644742,11.69291,4.712987Q11.721178,4.781233,11.735589000000001,4.853682Q11.75,4.9261315,11.75,5Z" fill="#BFBFBF" fill-opacity="1"/></g><g><path d="M14,19.75L10,19.75Q9.9261315,19.75,9.853682,19.735589Q9.781233,19.721178,9.712987,19.69291Q9.644742,19.664641,9.583322,19.623601999999998Q9.521903,19.582563,9.46967,19.53033Q9.417437,19.478096999999998,9.376398,19.416678Q9.335359,19.355258,9.30709,19.287013Q9.278822,19.218767,9.264410999999999,19.146318Q9.25,19.0738685,9.25,19Q9.25,18.9261315,9.264410999999999,18.853682Q9.278822,18.781233,9.30709,18.712987Q9.335359,18.644742,9.376398,18.583322Q9.417437,18.521903000000002,9.46967,18.46967Q9.521903,18.417437,9.583322,18.376398000000002Q9.644742,18.335359,9.712987,18.30709Q9.781233,18.278822,9.853682,18.264411Q9.9261315,18.25,10,18.25L14,18.25Q14.07387,18.25,14.14632,18.264411Q14.21877,18.278822,14.28701,18.30709Q14.355260000000001,18.335359,14.41668,18.376398000000002Q14.478100000000001,18.417437,14.53033,18.46967Q14.58256,18.521903000000002,14.6236,18.583322Q14.66464,18.644742,14.692910000000001,18.712987Q14.72118,18.781233,14.73559,18.853682Q14.75,18.9261315,14.75,19Q14.75,19.0738685,14.73559,19.146318Q14.72118,19.218767,14.692910000000001,19.287013Q14.66464,19.355258,14.6236,19.416678Q14.58256,19.478096999999998,14.53033,19.53033Q14.478100000000001,19.582563,14.41668,19.623601999999998Q14.355260000000001,19.664641,14.28701,19.69291Q14.21877,19.721178,14.14632,19.735589Q14.07387,19.75,14,19.75ZM14.75,19Q14.75,19.0738685,14.73559,19.146318Q14.72118,19.218767,14.692910000000001,19.287013Q14.66464,19.355258,14.6236,19.416678Q14.58256,19.478096999999998,14.53033,19.53033Q14.478100000000001,19.582563,14.41668,19.623601999999998Q14.355260000000001,19.664641,14.28701,19.69291Q14.21877,19.721178,14.14632,19.735589Q14.07387,19.75,14,19.75Q13.92613,19.75,13.85368,19.735589Q13.78123,19.721178,13.71299,19.69291Q13.64474,19.664641,13.58332,19.623601999999998Q13.5219,19.582563,13.46967,19.53033Q13.41744,19.478096999999998,13.3764,19.416678Q13.33536,19.355258,13.30709,19.287013Q13.27882,19.218767,13.26441,19.146318Q13.25,19.0738685,13.25,19Q13.25,18.9261315,13.26441,18.853682Q13.27882,18.781233,13.30709,18.712987Q13.33536,18.644742,13.3764,18.583322Q13.41744,18.521903000000002,13.46967,18.46967Q13.5219,18.417437,13.58332,18.376398000000002Q13.64474,18.335359,13.71299,18.30709Q13.78123,18.278822,13.85368,18.264411Q13.92613,18.25,14,18.25Q14.07387,18.25,14.14632,18.264411Q14.21877,18.278822,14.28701,18.30709Q14.355260000000001,18.335359,14.41668,18.376398000000002Q14.478100000000001,18.417437,14.53033,18.46967Q14.58256,18.521903000000002,14.6236,18.583322Q14.66464,18.644742,14.692910000000001,18.712987Q14.72118,18.781233,14.73559,18.853682Q14.75,18.9261315,14.75,19ZM10.75,19Q10.75,19.0738685,10.735589000000001,19.146318Q10.721178,19.218767,10.69291,19.287013Q10.664641,19.355258,10.623602,19.416678Q10.582563,19.478096999999998,10.53033,19.53033Q10.478097,19.582563,10.416678,19.623601999999998Q10.355258,19.664641,10.287013,19.69291Q10.218767,19.721178,10.146318,19.735589Q10.0738685,19.75,10,19.75Q9.9261315,19.75,9.853682,19.735589Q9.781233,19.721178,9.712987,19.69291Q9.644742,19.664641,9.583322,19.623601999999998Q9.521903,19.582563,9.46967,19.53033Q9.417437,19.478096999999998,9.376398,19.416678Q9.335359,19.355258,9.30709,19.287013Q9.278822,19.218767,9.264410999999999,19.146318Q9.25,19.0738685,9.25,19Q9.25,18.9261315,9.264410999999999,18.853682Q9.278822,18.781233,9.30709,18.712987Q9.335359,18.644742,9.376398,18.583322Q9.417437,18.521903000000002,9.46967,18.46967Q9.521903,18.417437,9.583322,18.376398000000002Q9.644742,18.335359,9.712987,18.30709Q9.781233,18.278822,9.853682,18.264411Q9.9261315,18.25,10,18.25Q10.0738685,18.25,10.146318,18.264411Q10.218767,18.278822,10.287013,18.30709Q10.355258,18.335359,10.416678,18.376398000000002Q10.478097,18.417437,10.53033,18.46967Q10.582563,18.521903000000002,10.623602,18.583322Q10.664641,18.644742,10.69291,18.712987Q10.721178,18.781233,10.735589000000001,18.853682Q10.75,18.9261315,10.75,19Z" fill="#BFBFBF" fill-opacity="1"/></g></g></svg>