<svg xmlns="http://www.w3.org/2000/svg" xmlns:xlink="http://www.w3.org/1999/xlink" fill="none" version="1.1" width="24" height="24" viewBox="0 0 24 24"><defs><clipPath id="master_svg0_3_085"><rect x="0" y="0" width="24" height="24" rx="0"/></clipPath></defs><g clip-path="url(#master_svg0_3_085)"><g><ellipse cx="12" cy="15" rx="7" ry="7" fill-opacity="0" stroke-opacity="1" stroke="#BFBFBF" fill="none" stroke-width="1.5"/></g><g><path d="M7.75,9L7.75,5.5Q7.75,3.7395899999999997,8.994795,2.494797Q10.23959,1.25,12,1.25Q13.76041,1.25,15.00521,2.494797Q16.25,3.7395899999999997,16.25,5.5L16.25,9L14.75,9L14.75,5.5Q14.75,4.3609100000000005,13.94454,3.55546Q13.13909,2.75,12,2.75Q10.86091,2.75,10.05546,3.55546Q9.25,4.3609100000000005,9.25,5.5L9.25,9L7.75,9Z" fill="#BFBFBF" fill-opacity="1"/></g><g><path d="M11.25,17L11.25,13Q11.25,12.9261315,11.264410999999999,12.853682Q11.278822,12.781233,11.30709,12.712987Q11.335359,12.644742,11.376398,12.583322Q11.417437,12.521903,11.46967,12.46967Q11.521903,12.417437,11.583322,12.376398Q11.644742,12.335359,11.712987,12.30709Q11.781233,12.278822,11.853682,12.264410999999999Q11.9261315,12.25,12,12.25Q12.0738685,12.25,12.146318,12.264410999999999Q12.218767,12.278822,12.287013,12.30709Q12.355258,12.335359,12.416678,12.376398Q12.478097,12.417437,12.53033,12.46967Q12.582563,12.521903,12.623602,12.583322Q12.664641,12.644742,12.69291,12.712987Q12.721178,12.781233,12.735589000000001,12.853682Q12.75,12.9261315,12.75,13L12.75,17Q12.75,17.07387,12.735589000000001,17.14632Q12.721178,17.21877,12.69291,17.287010000000002Q12.664641,17.35526,12.623602,17.41668Q12.582563,17.4781,12.53033,17.53033Q12.478097,17.58256,12.416678,17.6236Q12.355258,17.66464,12.287013,17.69291Q12.218767,17.72118,12.146318,17.735590000000002Q12.0738685,17.75,12,17.75Q11.9261315,17.75,11.853682,17.735590000000002Q11.781233,17.72118,11.712987,17.69291Q11.644742,17.66464,11.583322,17.6236Q11.521903,17.58256,11.46967,17.53033Q11.417437,17.4781,11.376398,17.41668Q11.335359,17.35526,11.30709,17.287010000000002Q11.278822,17.21877,11.264410999999999,17.14632Q11.25,17.07387,11.25,17ZM12.75,17Q12.75,17.07387,12.735589000000001,17.14632Q12.721178,17.21877,12.69291,17.287010000000002Q12.664641,17.35526,12.623602,17.41668Q12.582563,17.4781,12.53033,17.53033Q12.478097,17.58256,12.416678,17.6236Q12.355258,17.66464,12.287013,17.69291Q12.218767,17.72118,12.146318,17.735590000000002Q12.0738685,17.75,12,17.75Q11.9261315,17.75,11.853682,17.735590000000002Q11.781233,17.72118,11.712987,17.69291Q11.644742,17.66464,11.583322,17.6236Q11.521903,17.58256,11.46967,17.53033Q11.417437,17.4781,11.376398,17.41668Q11.335359,17.35526,11.30709,17.287010000000002Q11.278822,17.21877,11.264410999999999,17.14632Q11.25,17.07387,11.25,17Q11.25,16.92613,11.264410999999999,16.85368Q11.278822,16.78123,11.30709,16.71299Q11.335359,16.64474,11.376398,16.58332Q11.417437,16.5219,11.46967,16.46967Q11.521903,16.41744,11.583322,16.3764Q11.644742,16.33536,11.712987,16.30709Q11.781233,16.27882,11.853682,16.264409999999998Q11.9261315,16.25,12,16.25Q12.0738685,16.25,12.146318,16.264409999999998Q12.218767,16.27882,12.287013,16.30709Q12.355258,16.33536,12.416678,16.3764Q12.478097,16.41744,12.53033,16.46967Q12.582563,16.5219,12.623602,16.58332Q12.664641,16.64474,12.69291,16.71299Q12.721178,16.78123,12.735589000000001,16.85368Q12.75,16.92613,12.75,17ZM12.75,13Q12.75,13.0738685,12.735589000000001,13.146318Q12.721178,13.218767,12.69291,13.287013Q12.664641,13.355258,12.623602,13.416678Q12.582563,13.478097,12.53033,13.53033Q12.478097,13.582563,12.416678,13.623602Q12.355258,13.664641,12.287013,13.69291Q12.218767,13.721178,12.146318,13.735589000000001Q12.0738685,13.75,12,13.75Q11.9261315,13.75,11.853682,13.735589000000001Q11.781233,13.721178,11.712987,13.69291Q11.644742,13.664641,11.583322,13.623602Q11.521903,13.582563,11.46967,13.53033Q11.417437,13.478097,11.376398,13.416678Q11.335359,13.355258,11.30709,13.287013Q11.278822,13.218767,11.264410999999999,13.146318Q11.25,13.0738685,11.25,13Q11.25,12.9261315,11.264410999999999,12.853682Q11.278822,12.781233,11.30709,12.712987Q11.335359,12.644742,11.376398,12.583322Q11.417437,12.521903,11.46967,12.46967Q11.521903,12.417437,11.583322,12.376398Q11.644742,12.335359,11.712987,12.30709Q11.781233,12.278822,11.853682,12.264410999999999Q11.9261315,12.25,12,12.25Q12.0738685,12.25,12.146318,12.264410999999999Q12.218767,12.278822,12.287013,12.30709Q12.355258,12.335359,12.416678,12.376398Q12.478097,12.417437,12.53033,12.46967Q12.582563,12.521903,12.623602,12.583322Q12.664641,12.644742,12.69291,12.712987Q12.721178,12.781233,12.735589000000001,12.853682Q12.75,12.9261315,12.75,13Z" fill="#BFBFBF" fill-opacity="1"/></g></g></svg>