<svg width="24" height="24" viewBox="0 0 24 24" fill="none" xmlns="http://www.w3.org/2000/svg">
<path d="M12.0004 0C5.38335 0 0 5.38335 0 12.0004C0 18.6174 5.38335 24 12.0004 24C18.6166 24 24 18.6166 24 12.0004C24 5.3841 18.6166 0 12.0004 0ZM12.0004 22.5019C6.20954 22.5019 1.49808 17.7905 1.49808 12.0004C1.49808 6.21029 6.20954 1.49808 12.0004 1.49808C17.7905 1.49808 22.5019 6.20954 22.5019 12.0004C22.5019 17.7912 17.7905 22.5019 12.0004 22.5019Z" fill="white"/>
<path d="M9 9V16" stroke="white" stroke-width="1.5" stroke-linecap="round"/>
<path d="M15 9V16" stroke="white" stroke-width="1.5" stroke-linecap="round"/>
</svg>
