<svg width="24" height="24" viewBox="0 0 24 24" fill="none" xmlns="http://www.w3.org/2000/svg">
<path d="M12.0004 0C5.38335 0 0 5.38335 0 12.0004C0 18.6174 5.38335 24 12.0004 24C18.6166 24 24 18.6166 24 12.0004C24 5.3841 18.6166 0 12.0004 0ZM12.0004 22.5019C6.20954 22.5019 1.49808 17.7905 1.49808 12.0004C1.49808 6.21029 6.20954 1.49808 12.0004 1.49808C17.7905 1.49808 22.5019 6.20954 22.5019 12.0004C22.5019 17.7912 17.7905 22.5019 12.0004 22.5019ZM17.4159 11.0671L10.8573 7.05521L10.7607 7.00502C10.7053 6.98106 10.1989 6.77207 9.66037 6.77207C8.72857 6.77207 8.12559 7.39153 8.12559 8.3488V15.9635L8.16604 16.0811C8.30686 16.4954 8.7795 17.1957 9.65138 17.1957C9.92853 17.1957 10.2154 17.1208 10.5315 16.959L17.0152 13.2842L17.0789 13.243C17.5253 12.9269 18.0077 12.133 17.5111 11.2386L17.4159 11.0671Z" fill="white"/>
</svg>
